{"title":"Annie [2014] (No Cinavia) 720p","uid":11756301,"size":4056109471,"categoryP":"video","categoryS":"hd___movies","magnet":"?xt=urn:btih:07769fa6b8ab8cfd800b7a958e6b1dc1655533fe&amp;dn=Annie+%5B2014%5D+%28No+Cinavia%29+720p&amp;tr=udp%3A%2F%2Ftracker.openbittorrent.com%3A80&amp;tr=udp%3A%2F%2Fopen.demonii.com%3A1337&amp;tr=udp%3A%2F%2Ftracker.coppersurfer.tk%3A6969&amp;tr=udp%3A%2F%2Fexodus.desync.com%3A6969","seeders":6,"leechers":0,"uploader":"AlienMethod","files":7,"time":1426390963,"description":"x264/mp4\nCinavia Removed/CinExHD\n6-Channel AC3@640kbps (audio 1)\n2-Channel AAC@192kbps (audio 2)\nEnglish Subs (IvandroFly) Incl.\n\n\n&quot;A foster kid, who lives with her mean foster mom, sees her life change when \nbusiness tycoon and New York mayoral candidate Will Stacks makes a thinly-veiled\ncampaign move and takes her in.&quot;\n\n\n\nGeneral\nComplete name : F:TorrentsAnnie [2014] (NoCinavia) 720p\nAnnie [2014] (NoCinavia) 720p.mp4\nFormat : MPEG-4\nFormat profile : Base Media\nCodec ID : isom\nFile size : 3.78 GiB\nDuration : 1h 58mn\nOverall bit rate mode : Variable\nOverall bit rate : 4 568 Kbps\nEncoded date : UTC 2015-03-14 15:13:30\nTagged date : UTC 2015-03-14 15:13:30\nWriting application : My MP4Box GUI 0.6.0.6 \n\nVideo\nID : 1\nFormat : AVC\nFormat/Info : Advanced Video Codec\nFormat profile : &lt;a class=&quot;__cf_email__&quot; href=&quot;/cdn-cgi/l/email-protection&quot; data-cfemail=&quot;c68eafa1ae868af2e8f7&quot;&gt;[email&amp;#160;protected]&lt;/a&gt;&lt;script cf-hash='f9e31' type=&quot;text/javascript&quot;&gt;\n/* &lt;![CDATA[ */!function(){try{var t=&quot;currentScript&quot;in document?document.currentScript:function(){for(var t=document.getElementsByTagName(&quot;script&quot;),e=t.length;e--;)if(t[e].getAttribute(&quot;cf-hash&quot;))return t[e]}();if(t&amp;&amp;t.previousSibling){var e,r,n,i,c=t.previousSibling,a=c.getAttribute(&quot;data-cfemail&quot;);if(a){for(e=&quot;&quot;,r=parseInt(a.substr(0,2),16),n=2;a.length-n;n+=2)i=parseInt(a.substr(n,2),16)^r,e+=String.fromCharCode(i);e=document.createTextNode(e),c.parentNode.replaceChild(e,c)}}}catch(u){}}();/* ]]&gt; */&lt;/script&gt;\nFormat settings, CABAC : Yes\nFormat settings, ReFrames : 6 frames\nCodec ID : avc1\nCodec ID/Info : Advanced Video Coding\nDuration : 1h 58mn\nBit rate : 3 711 Kbps\nMaximum bit rate : 28.8 Mbps\nWidth : 1 280 pixels\nHeight : 536 pixels\nDisplay aspect ratio : 2.40:1\nFrame rate mode : Constant\nFrame rate : 23.976 fps\nColor space : YUV\nChroma subsampling : 4:2:0\nBit depth : 8 bits\nScan type : Progressive\nBits/(Pixel*Frame) : 0.226\nStream size : 3.07 GiB (81%)\nTitle : Annie (CinEx)_track1_und.h264\nWriting library : x264 core 142 r2431 ac76440\nEncoded date : UTC 2015-03-14 15:13:30\nTagged date : UTC 2015-03-14 15:13:48\nColor primaries : BT.709\nTransfer characteristics : BT.709\nMatrix coefficients : BT.709\n\nAudio #1\nID : 2\nFormat : AC-3\nFormat/Info : Audio Coding 3\nMode extension : CM (complete main)\nFormat settings, Endianness : Big\nCodec ID : ac-3\nDuration : 1h 58mn\nBit rate mode : Constant\nBit rate : 640 Kbps\nChannel(s) : 6 channels\nChannel positions : Front: L C R, Side: L R, LFE\nSampling rate : 48.0 KHz\nBit depth : 16 bits\nCompression mode : Lossy\nStream size : 542 MiB (14%)\nTitle : Annie (CinEx)_track2_und.ac3\nEncoded date : UTC 2015-03-14 15:13:44\nTagged date : UTC 2015-03-14 15:13:48\n\nAudio #2\nID : 3\nFormat : AAC\nFormat/Info : Advanced Audio Codec\nFormat profile : LC\nCodec ID : 40\nDuration : 1h 58mn\nBit rate mode : Variable\nBit rate : 213 Kbps\nMaximum bit rate : 258 Kbps\nChannel(s) : 2 channels\nChannel positions : Front: L R\nSampling rate : 48.0 KHz\nCompression mode : Lossy\nStream size : 180 MiB (5%)\nTitle : Annie (CinEx)_track2_und_Output.m4a\nEncoded date : UTC 2015-03-14 15:13:47\nTagged date : UTC 2015-03-14 15:13:48","torrent":{"xt":"urn:btih:07769fa6b8ab8cfd800b7a958e6b1dc1655533fe","amp;dn":"Annie+%5B2014%5D+%28No+Cinavia%29+720p","amp;tr":["udp%3A%2F%2Ftracker.openbittorrent.com%3A80","udp%3A%2F%2Fopen.demonii.com%3A1337","udp%3A%2F%2Ftracker.coppersurfer.tk%3A6969","udp%3A%2F%2Fexodus.desync.com%3A6969"],"infoHash":"07769fa6b8ab8cfd800b7a958e6b1dc1655533fe","infoHashBuffer":{"type":"Buffer","data":[7,118,159,166,184,171,140,253,128,11,122,149,142,107,29,193,101,85,51,254]},"announce":[],"urlList":[]}}